<svg id="Layer_1" data-name="Layer 1" xmlns="http://www.w3.org/2000/svg" viewBox="0 0 1366 768"><defs><style>.cls-1{font-size:591.51px;fill:#606161;font-family:Simplifica, Simplifica;}.cls-2{letter-spacing:0.02em;}.cls-3{letter-spacing:0em;}.cls-4{font-size:204.53px;fill:#787878;font-family:PoiretOne-Regular, Poiret One;letter-spacing:0.13em;}.cls-5{letter-spacing:0.16em;}.cls-6{letter-spacing:0.15em;}.cls-7{letter-spacing:0.15em;}.cls-8{letter-spacing:0.17em;}.cls-9{letter-spacing:0.12em;}.cls-10{letter-spacing:0.14em;}.cls-11{letter-spacing:0.15em;}.cls-12{letter-spacing:0.16em;}.cls-13{letter-spacing:0.17em;}.cls-14{fill:#3853a3;}</style></defs><title>Artboard 1</title><text class="cls-1" transform="translate(41.56 463.38)">GRAY<tspan class="cls-2" x="830.46" y="0">i</tspan><tspan class="cls-3" x="923.32" y="0">n</tspan><tspan x="1126.2" y="0">k</tspan></text><text class="cls-4" transform="matrix(1.04, 0, 0, 1, 55.59, 694.1)">C<tspan class="cls-5" x="168.74" y="0">o</tspan><tspan class="cls-6" x="312.95" y="0">n</tspan><tspan class="cls-7" x="450.31" y="0">s</tspan><tspan class="cls-8" x="551" y="0">u</tspan><tspan class="cls-9" x="687.91" y="0">l</tspan><tspan class="cls-10" x="764.63" y="0">t</tspan><tspan class="cls-11" x="843.47" y="0">i</tspan><tspan class="cls-12" x="911.5" y="0">n</tspan><tspan class="cls-13" x="1050.82" y="0">g</tspan></text><path class="cls-14" d="M878.9,132.34c-.33-.51-.47-.63-.46-.73.28-2.2.56-4.41.89-6.6s.84-4.19,1-6.3c.26-2.87-1.54-4.08-4.24-3.11a53.76,53.76,0,0,1-6.33,2,14.19,14.19,0,0,1-3.79-.06c-.22,0-.59-.28-.59-.43a1.29,1.29,0,0,1,.37-.78c1-1.06,2-2.06,3-3.14a1.4,1.4,0,0,0-.13-2.25,17.42,17.42,0,0,1-1.83-1.82,3.08,3.08,0,0,0-4.65-.38c-1.17,1-2.38,1.94-3.58,2.88a1.23,1.23,0,0,1-1.92-.1c-.64-.79-.14-1.38.46-1.84,1.43-1.09,3-2.07,4.33-3.23a7.91,7.91,0,0,0,1.24-1.91c1.46-2.28,2.83-4.62,4.4-6.83,1.25-1.76,1.19-3.32-.63-4.49a15,15,0,0,0-3.11-1.32,3.48,3.48,0,0,0-3.2.66,5.65,5.65,0,0,1-2.57.89,33.32,33.32,0,0,1-4.9-.12c-.41,0-.78-.53-1.16-.81.38-.38.72-1,1.16-1.08a9.25,9.25,0,0,1,2.85,0,4.25,4.25,0,0,0,3.59-.83c1.32-1.14,2.83-1,4.39-.81,1.13.16,2.26.27,3.39.41a2.54,2.54,0,0,0,3-1.76,6.85,6.85,0,0,0,.69-1.9,2.44,2.44,0,0,0-.63-1.76c-1.92-1.63-3.92-3.15-5.93-4.67a10.39,10.39,0,0,0-2.37-1.47c-1.22-.48-2.78-2.42-2.63-3.73,0-.29.61-.71,1-.73,1.13-.09,2.27,0,3.4,0,2.75-.05,3-.72,4.21-3.48.56-1.23-.29-3.63-1.44-4.58-1.92-1.6-2-1.69-1.17-4,.57-1.73.64-3.12-1-4.61A58.25,58.25,0,0,1,858.77,51c-.09-.11-.14-.26-.25-.32-2.47-1.51-4.17-4.12-7.11-5a5.73,5.73,0,0,1-3.29-2.9c-1.41-2.38-2.82-4.76-4.21-7.16a4.26,4.26,0,0,1-.63-1.61c-.11-1.07.53-1.76,1.56-1.48A4.81,4.81,0,0,1,847.22,34c2.9,3.49,6,6.87,8,11a1.87,1.87,0,0,0,.39.55c3.42,3.16,6.65,6.57,10.33,9.39,2.25,1.72,4.5,3.92,7.78,3.86,1.46,0,2.93.23,4.39.34a1,1,0,0,0,.66-.09c1.69-1.43,4-1.85,5.58-3.54,1.12-1.17,2.15-2.16,2.13-3.85a24,24,0,0,1,0-2.71,6,6,0,0,1,.66-1.59c.49.39,1.21.68,1.42,1.19,1.46,3.41,2.94,6.83,4.14,10.34.86,2.51,3,3.35,5,4.34s4,1.93,6.26,1.38c.44-.1.86-.28,1.3-.39,1.4-.35,2.83-.6,4.2-1,3.1-1,6.3-1.84,8-5.06a1.77,1.77,0,0,1,.6-.73c2.6-1.43,2.56-3.95,2.72-6.41.07-1.17.35-2.34.34-3.51a6.26,6.26,0,0,0-.54-2.83c-1.24-2.28-1.24-3.66.33-5.78a1.64,1.64,0,0,0,.41-.69c.23-2.66,2.63-3.42,4.27-4.79.92-.76,3.24-.27,4.06.57a4.23,4.23,0,0,1,.52,4.24c-.46.87-.82,1.8-1.22,2.7a2.77,2.77,0,0,1-.21.5c-1.64,2.28-3.43,4.47-4.89,6.85a23,23,0,0,0-1.65,4.53c-.41,1.18-.82,2.36-1.22,3.55a16.48,16.48,0,0,0-1,3.21,2.47,2.47,0,0,0,3.34,2.83,17.6,17.6,0,0,0,3.53-2.11c.11-.07.16-.27.27-.3,2.77-.63,3.39-3.58,5.43-5,1.19-.83,2.33-1.74,3.51-2.58.72-.51,1.51-.57,2,.28s0,1.37-.76,1.87c-1.32.87-2.53,1.89-3.81,2.82a31.83,31.83,0,0,0-2.73,1.9c-1.37,1.24-2.63,2.6-3.93,3.92-.11.11-.09.35-.16.52-.44,1.17-.94,2.36.44,3.28a3.71,3.71,0,0,0,4.28-.48,8,8,0,0,0,.68-.85c.55-.75,1.35-1.28,2-.49.38.46.41,1.92.07,2.15-2.2,1.49-3.32,3.84-4.9,5.8A8.46,8.46,0,0,0,927.46,77c-.3,2-.79,3.7-2.6,4.82a2.5,2.5,0,0,0-1.17,3.37,4.61,4.61,0,0,1-.1,2.39c-.37,1.65-.17,2.28,1.33,3a19.33,19.33,0,0,0,8.5,1.49,74.51,74.51,0,0,1,8,.42,2.41,2.41,0,0,1,2.47,2c.23,1.29-.49,2.38-1.78,2.29A21.71,21.71,0,0,1,934.15,95a3.92,3.92,0,0,0-2.31-.21c-2.57.53-5.14,1-7.3,2.77-1.61,1.3-2.3,3.33-1.07,5,1.39,1.89,1,3.7.4,5.68a7.69,7.69,0,0,0-.11,2.58c0,.44.28.87.31,1.32.12,1.72-.58,2.22-2.13,1.43a4.3,4.3,0,0,0-3.7,0c-1.73.67-3.37,1.56-5.09,2.25a1.65,1.65,0,0,1-1.48-.17c-1.9-2.34-3.44-1.28-4.59.83a6,6,0,0,0-.32,5.62,8.55,8.55,0,0,1,.55,3.17c0,.48-.46,1-.71,1.46-.41-.37-1-.66-1.21-1.13-1-1.88-1.86-3.82-2.82-5.71s-3-2.78-4.89-3.43c-2.09-.73-5.45,2.08-5.72,4.33-.18,1.53-.41,3.06-.7,4.58-.06.33-.45.6-.69.89a3.65,3.65,0,0,1-.59-.92c-.23-.83-.38-1.68-.53-2.52a2.93,2.93,0,0,0-3.27-2.77c-1.17,0-2,1.11-2.42,2.69a20.64,20.64,0,0,1-1.63,3.38c-.74,1.48-1.48,3-2.23,4.45C879.64,131.12,879.32,131.62,878.9,132.34Z"/><path class="cls-14" d="M878.9,132.34c-.33-.51-.47-.63-.46-.73.28-2.2.56-4.41.89-6.6s.84-4.19,1-6.3c.26-2.87-1.54-4.08-4.24-3.11a53.76,53.76,0,0,1-6.33,2,14.19,14.19,0,0,1-3.79-.06c-.22,0-.59-.28-.59-.43a1.29,1.29,0,0,1,.37-.78c1-1.06,2-2.06,3-3.14a1.4,1.4,0,0,0-.13-2.25,17.42,17.42,0,0,1-1.83-1.82,3.08,3.08,0,0,0-4.65-.38c-1.17,1-2.38,1.94-3.58,2.88a1.23,1.23,0,0,1-1.92-.1c-.64-.79-.14-1.38.46-1.84,1.43-1.09,3-2.07,4.33-3.23a7.91,7.91,0,0,0,1.24-1.91c1.46-2.28,2.83-4.62,4.4-6.83,1.25-1.76,1.19-3.32-.63-4.49a15,15,0,0,0-3.11-1.32,3.48,3.48,0,0,0-3.2.66,5.65,5.65,0,0,1-2.57.89,33.32,33.32,0,0,1-4.9-.12c-.41,0-.78-.53-1.16-.81.38-.38.72-1,1.16-1.08a9.25,9.25,0,0,1,2.85,0,4.25,4.25,0,0,0,3.59-.83c1.32-1.14,2.83-1,4.39-.81,1.13.16,2.26.27,3.39.41a2.54,2.54,0,0,0,3-1.76,6.85,6.85,0,0,0,.69-1.9,2.44,2.44,0,0,0-.63-1.76c-1.92-1.63-3.92-3.15-5.93-4.67a10.39,10.39,0,0,0-2.37-1.47c-1.22-.48-2.78-2.42-2.63-3.73,0-.29.61-.71,1-.73,1.13-.09,2.27,0,3.4,0,2.75-.05,3-.72,4.21-3.48.56-1.23-.29-3.63-1.44-4.58-1.92-1.6-2-1.69-1.17-4,.57-1.73.64-3.12-1-4.61A58.25,58.25,0,0,1,858.77,51c-.09-.11-.14-.26-.25-.32-2.47-1.51-4.17-4.12-7.11-5a5.73,5.73,0,0,1-3.29-2.9c-1.41-2.38-2.82-4.76-4.21-7.16a4.26,4.26,0,0,1-.63-1.61c-.11-1.07.53-1.76,1.56-1.48A4.81,4.81,0,0,1,847.22,34c2.9,3.49,6,6.87,8,11a1.87,1.87,0,0,0,.39.55c3.42,3.16,6.65,6.57,10.33,9.39,2.25,1.72,4.5,3.92,7.78,3.86,1.46,0,2.93.23,4.39.34a1,1,0,0,0,.66-.09c1.69-1.43,4-1.85,5.58-3.54,1.12-1.17,2.15-2.16,2.13-3.85a24,24,0,0,1,0-2.71,6,6,0,0,1,.66-1.59c.49.39,1.21.68,1.42,1.19,1.46,3.41,2.94,6.83,4.14,10.34.86,2.51,3,3.35,5,4.34s4,1.93,6.26,1.38c.44-.1.86-.28,1.3-.39,1.4-.35,2.83-.6,4.2-1,3.1-1,6.3-1.84,8-5.06a1.77,1.77,0,0,1,.6-.73c2.6-1.43,2.56-3.95,2.72-6.41.07-1.17.35-2.34.34-3.51a6.26,6.26,0,0,0-.54-2.83c-1.24-2.28-1.24-3.66.33-5.78a1.64,1.64,0,0,0,.41-.69c.23-2.66,2.63-3.42,4.27-4.79.92-.76,3.24-.27,4.06.57a4.23,4.23,0,0,1,.52,4.24c-.46.87-.82,1.8-1.22,2.7a2.77,2.77,0,0,1-.21.5c-1.64,2.28-3.43,4.47-4.89,6.85a23,23,0,0,0-1.65,4.53c-.41,1.18-.82,2.36-1.22,3.55a16.48,16.48,0,0,0-1,3.21,2.47,2.47,0,0,0,3.34,2.83,17.6,17.6,0,0,0,3.53-2.11c.11-.07.16-.27.27-.3,2.77-.63,3.39-3.58,5.43-5,1.19-.83,2.33-1.74,3.51-2.58.72-.51,1.51-.57,2,.28s0,1.37-.76,1.87c-1.32.87-2.53,1.89-3.81,2.82a31.83,31.83,0,0,0-2.73,1.9c-1.37,1.24-2.63,2.6-3.93,3.92-.11.11-.09.35-.16.52-.44,1.17-.94,2.36.44,3.28a3.71,3.71,0,0,0,4.28-.48,8,8,0,0,0,.68-.85c.55-.75,1.35-1.28,2-.49.38.46.41,1.92.07,2.15-2.2,1.49-3.32,3.84-4.9,5.8A8.46,8.46,0,0,0,927.46,77c-.3,2-.79,3.7-2.6,4.82a2.5,2.5,0,0,0-1.17,3.37,4.61,4.61,0,0,1-.1,2.39c-.37,1.65-.17,2.28,1.33,3a19.33,19.33,0,0,0,8.5,1.49,74.51,74.51,0,0,1,8,.42,2.41,2.41,0,0,1,2.47,2c.23,1.29-.49,2.38-1.78,2.29A21.71,21.71,0,0,1,934.15,95a3.92,3.92,0,0,0-2.31-.21c-2.57.53-5.14,1-7.3,2.77-1.61,1.3-2.3,3.33-1.07,5,1.39,1.89,1,3.7.4,5.68a7.69,7.69,0,0,0-.11,2.58c0,.44.28.87.31,1.32.12,1.72-.58,2.22-2.13,1.43a4.3,4.3,0,0,0-3.7,0c-1.73.67-3.37,1.56-5.09,2.25a1.65,1.65,0,0,1-1.48-.17c-1.9-2.34-3.44-1.28-4.59.83a6,6,0,0,0-.32,5.62,8.55,8.55,0,0,1,.55,3.17c0,.48-.46,1-.71,1.46-.41-.37-1-.66-1.21-1.13-1-1.88-1.86-3.82-2.82-5.71s-3-2.78-4.89-3.43c-2.09-.73-5.45,2.08-5.72,4.33-.18,1.53-.41,3.06-.7,4.58-.06.33-.45.6-.69.89a3.65,3.65,0,0,1-.59-.92c-.23-.83-.38-1.68-.53-2.52a2.93,2.93,0,0,0-3.27-2.77c-1.17,0-2,1.11-2.42,2.69a20.64,20.64,0,0,1-1.63,3.38c-.74,1.48-1.48,3-2.23,4.45C879.64,131.12,879.32,131.62,878.9,132.34Z"/></svg>