<?xml version="1.0" encoding="iso-8859-1"?>
<!-- Generator: Adobe Illustrator 16.0.0, SVG Export Plug-In . SVG Version: 6.00 Build 0)  -->
<!DOCTYPE svg PUBLIC "-//W3C//DTD SVG 1.1//EN" "http://www.w3.org/Graphics/SVG/1.1/DTD/svg11.dtd">
<svg version="1.1" id="Capa_1" xmlns="http://www.w3.org/2000/svg" xmlns:xlink="http://www.w3.org/1999/xlink" x="0px" y="0px"
	 viewBox="0 0 512.001 512.001" style="enable-background:new 0 0 512.001 512.001;"
	 xml:space="preserve">
<g>
	<g>
		<path d="M47.012,36.789l-0.934,1.34l-2.669-1.176l-6.413-3.877l-2.309,1.641l4.498,3.154l-6.385,1.396l-4.855-2.608l-2.758,1.278
			l6.74,4.5l8.342,0.069l2.453,0.437l-1.011,1.447l2.983,2.077l5.301-7.604L47.012,36.789z M44.423,44.934l-1.173-0.816l4.037-5.793
			l1.174,0.816L44.423,44.934z"/>
		<path d="M17.196,39.269l-6.384-1.397l4.498-3.152L13,33.076l-6.411,3.879l-2.67,1.174l-0.934-1.34L0,38.867l5.3,7.604l2.983-2.078
			l-1.009-1.447l2.454-0.438l8.342-0.068l6.739-4.5l-2.758-1.281L17.196,39.269z M5.575,44.936l-4.038-5.793l1.174-0.818
			l4.037,5.795L5.575,44.936z"/>
		<path d="M13.708,28.627c2.793,3.352,6.987,5.496,11.674,5.522c0.019,0,0.035,0.002,0.054,0.002c0.004,0,0.008,0,0.014,0
			c0.007,0,0.015,0,0.021,0c4.725,0,8.954-2.149,11.766-5.522c0.258-0.309,0.502-0.631,0.734-0.961
			c1.771-2.497,2.813-5.542,2.813-8.831c0-3.285-1.044-6.33-2.813-8.828c-0.232-0.33-0.477-0.65-0.734-0.961
			c-2.812-3.371-7.041-5.523-11.766-5.523c-0.008,0-0.016,0-0.021,0s-0.01,0-0.014,0c-0.019,0-0.035,0.002-0.054,0.002
			c-4.687,0.027-8.881,2.174-11.674,5.522c-0.258,0.309-0.502,0.629-0.735,0.959c-1.77,2.498-2.814,5.543-2.814,8.828
			c0,3.289,1.045,6.334,2.814,8.831C13.206,27.998,13.45,28.32,13.708,28.627z M29.836,32.199c1.43-1.363,2.618-3.369,3.432-5.785
			c1.104,0.408,2.097,0.899,2.949,1.459C34.548,29.853,32.352,31.375,29.836,32.199z M36.958,26.914
			c-0.968-0.646-2.092-1.213-3.337-1.676c0.441-1.625,0.725-3.4,0.807-5.271h5.051C39.273,22.541,38.367,24.917,36.958,26.914z
			 M39.523,18.71h-5.07c-0.012-2.238-0.311-4.359-0.831-6.271c1.243-0.463,2.366-1.027,3.335-1.674
			C38.546,13.019,39.497,15.753,39.523,18.71z M36.219,9.805c-0.854,0.561-1.848,1.053-2.953,1.461c-0.813-2.414-2-4.424-3.43-5.787
			C32.352,6.303,34.55,7.824,36.219,9.805z M26.1,4.837c2.551,0.393,4.746,3.035,5.994,6.814c-1.801,0.535-3.834,0.857-5.994,0.91
			V4.837z M26.1,13.817c2.277-0.055,4.426-0.404,6.344-0.982c0.47,1.785,0.742,3.771,0.754,5.875H26.1V13.817z M26.1,19.966h7.071
			c-0.077,1.734-0.329,3.377-0.723,4.879c-1.919-0.582-4.069-0.932-6.349-0.986V19.966L26.1,19.966z M26.1,25.115
			c2.16,0.053,4.196,0.377,5.998,0.91c-1.248,3.783-3.447,6.423-5.998,6.813V25.115z M14.726,27.873
			c0.838-0.549,1.808-1.033,2.886-1.438c0.806,2.386,1.976,4.367,3.384,5.726C18.526,31.328,16.369,29.824,14.726,27.873z
			 M24.843,32.85c-2.577-0.352-4.804-2.998-6.064-6.805c1.817-0.545,3.877-0.877,6.064-0.93V32.85z M24.843,23.858
			c-2.306,0.057-4.48,0.412-6.418,1.008c-0.396-1.508-0.649-3.158-0.726-4.9h7.144V23.858z M24.843,18.71h-7.169
			c0.01-2.111,0.285-4.105,0.758-5.896c1.934,0.592,4.107,0.949,6.411,1.004V18.71z M24.843,4.828v7.734
			c-2.187-0.053-4.244-0.383-6.062-0.928C20.043,7.828,22.266,5.182,24.843,4.828z M20.995,5.518
			c-1.408,1.357-2.577,3.342-3.383,5.725c-1.08-0.404-2.052-0.889-2.89-1.438C16.365,7.852,18.526,6.35,20.995,5.518z
			 M13.984,10.764c0.952,0.637,2.053,1.191,3.27,1.65c-0.524,1.918-0.825,4.049-0.837,6.297h-4.999
			C11.445,15.753,12.395,13.018,13.984,10.764z M16.441,19.966c0.081,1.881,0.366,3.666,0.813,5.299
			c-1.217,0.457-2.318,1.014-3.27,1.648c-1.408-1.999-2.314-4.374-2.521-6.948H16.441z"/>
	</g>
</g>
<g>
</g>
<g>
</g>
<g>
</g>
<g>
</g>
<g>
</g>
<g>
</g>
<g>
</g>
<g>
</g>
<g>
</g>
<g>
</g>
<g>
</g>
<g>
</g>
<g>
</g>
<g>
</g>
<g>
</g>
</svg>
