<svg id="Layer_1" data-name="Layer 1" xmlns="http://www.w3.org/2000/svg" viewBox="0 0 1366 768"><defs><style>.cls-1{font-size:602.81px;fill:#606161;font-family:Simplifica, Simplifica;}.cls-2{letter-spacing:0.02em;}.cls-3{letter-spacing:0em;}.cls-4{font-size:208.44px;fill:#787878;font-family:PoiretOne-Regular, Poiret One;letter-spacing:0.13em;}.cls-5{letter-spacing:0.16em;}.cls-6{letter-spacing:0.15em;}.cls-7{letter-spacing:0.15em;}.cls-8{letter-spacing:0.17em;}.cls-9{letter-spacing:0.12em;}.cls-10{letter-spacing:0.14em;}.cls-11{letter-spacing:0.15em;}.cls-12{letter-spacing:0.16em;}.cls-13{letter-spacing:0.17em;}.cls-14{fill:#3853a3;}</style></defs><title>logobig</title><text class="cls-1" transform="translate(33.3 461.64)">GRAY<tspan class="cls-2" x="846.34" y="0">i</tspan><tspan class="cls-3" x="940.97" y="0">n</tspan><tspan x="1147.73" y="0">k</tspan></text><text class="cls-4" transform="matrix(1.04, 0, 0, 1, 47.57, 696.78)">C<tspan class="cls-5" x="171.96" y="0">o</tspan><tspan class="cls-6" x="318.93" y="0">n</tspan><tspan class="cls-7" x="458.92" y="0">s</tspan><tspan class="cls-8" x="561.53" y="0">u</tspan><tspan class="cls-9" x="701.06" y="0">l</tspan><tspan class="cls-10" x="779.25" y="0">t</tspan><tspan class="cls-11" x="859.6" y="0">i</tspan><tspan class="cls-12" x="928.92" y="0">n</tspan><tspan class="cls-13" x="1070.91" y="0">g</tspan></text><path class="cls-14" d="M886.63,124.27c-.33-.52-.48-.64-.47-.74.29-2.24.57-4.49.91-6.73s.86-4.27,1.05-6.42c.27-2.92-1.57-4.15-4.32-3.17a54.79,54.79,0,0,1-6.45,2,14.46,14.46,0,0,1-3.86-.06c-.22,0-.6-.28-.6-.44a1.31,1.31,0,0,1,.38-.8c1-1.08,2.07-2.1,3.06-3.2a1.43,1.43,0,0,0-.13-2.29,17.75,17.75,0,0,1-1.86-1.86,3.14,3.14,0,0,0-4.73-.39c-1.19,1-2.42,2-3.65,2.94a1.25,1.25,0,0,1-2-.11c-.65-.8-.14-1.41.47-1.88,1.46-1.11,3-2.11,4.41-3.29a8.06,8.06,0,0,0,1.27-1.94c1.48-2.33,2.89-4.71,4.48-7,1.27-1.79,1.21-3.39-.64-4.57A15.31,15.31,0,0,0,870.8,83a3.54,3.54,0,0,0-3.26.67,5.76,5.76,0,0,1-2.62.91,34,34,0,0,1-5-.12c-.41,0-.79-.54-1.19-.83.39-.38.74-1,1.18-1.1a9.42,9.42,0,0,1,2.9,0,4.34,4.34,0,0,0,3.66-.84c1.35-1.16,2.89-1,4.47-.83,1.15.16,2.3.27,3.45.41a2.59,2.59,0,0,0,3.06-1.79,7,7,0,0,0,.7-1.94,2.49,2.49,0,0,0-.64-1.79c-2-1.66-4-3.21-6-4.76a10.59,10.59,0,0,0-2.41-1.5c-1.25-.49-2.83-2.46-2.68-3.8,0-.3.62-.72,1-.75,1.15-.09,2.31,0,3.47,0,2.8-.05,3-.74,4.3-3.55.57-1.25-.3-3.7-1.46-4.67-2-1.63-2-1.72-1.19-4.11.58-1.76.66-3.17-1-4.7a59.37,59.37,0,0,1-5.39-6.51c-.09-.11-.14-.26-.25-.33-2.52-1.53-4.25-4.2-7.25-5.05a5.84,5.84,0,0,1-3.36-3c-1.43-2.43-2.88-4.85-4.29-7.29a4.34,4.34,0,0,1-.64-1.64c-.11-1.09.54-1.79,1.59-1.51a4.9,4.9,0,0,1,2.43,1.4c3,3.56,6.09,7,8.13,11.23a1.9,1.9,0,0,0,.4.56c3.48,3.23,6.78,6.69,10.53,9.57,2.29,1.75,4.58,4,7.92,3.94,1.49,0,3,.23,4.48.35a1,1,0,0,0,.67-.09c1.72-1.46,4-1.88,5.69-3.61,1.14-1.2,2.19-2.2,2.17-3.93a24.43,24.43,0,0,1,0-2.77,6.09,6.09,0,0,1,.67-1.62c.5.4,1.23.7,1.45,1.21,1.48,3.48,3,7,4.22,10.53.87,2.56,3,3.41,5.05,4.43s4,2,6.38,1.4c.45-.11.88-.29,1.32-.4,1.43-.36,2.88-.61,4.28-1.06,3.15-1,6.42-1.88,8.15-5.15a1.81,1.81,0,0,1,.61-.74c2.65-1.46,2.61-4,2.77-6.53.08-1.19.36-2.38.35-3.57A6.38,6.38,0,0,0,929,34.9c-1.26-2.32-1.27-3.73.34-5.89a1.67,1.67,0,0,0,.42-.71c.23-2.71,2.68-3.49,4.36-4.88.93-.77,3.3-.28,4.14.58a4.32,4.32,0,0,1,.52,4.32c-.47.89-.84,1.83-1.25,2.75a2.82,2.82,0,0,1-.22.51c-1.67,2.32-3.49,4.55-5,7a23.46,23.46,0,0,0-1.68,4.61c-.42,1.2-.84,2.41-1.24,3.62a16.79,16.79,0,0,0-1,3.27,2.51,2.51,0,0,0,3.41,2.89,17.94,17.94,0,0,0,3.6-2.15c.11-.07.17-.28.27-.3,2.82-.64,3.46-3.65,5.53-5.1,1.21-.85,2.37-1.77,3.58-2.63.74-.52,1.54-.59,2,.28s0,1.4-.78,1.91c-1.34.89-2.58,1.93-3.88,2.87a32.44,32.44,0,0,0-2.78,1.93c-1.4,1.26-2.68,2.65-4,4-.11.12-.1.35-.16.53-.45,1.2-1,2.4.45,3.34a3.79,3.79,0,0,0,4.36-.49,8.16,8.16,0,0,0,.7-.86c.56-.77,1.38-1.31,2.05-.5.39.47.42,2,.07,2.19-2.24,1.51-3.39,3.91-5,5.91a8.62,8.62,0,0,0-1.76,3.94c-.3,2-.81,3.78-2.65,4.91a2.55,2.55,0,0,0-1.19,3.43,4.7,4.7,0,0,1-.1,2.44c-.37,1.69-.17,2.33,1.35,3a19.7,19.7,0,0,0,8.66,1.52,75.93,75.93,0,0,1,8.13.43,2.46,2.46,0,0,1,2.51,2c.24,1.32-.5,2.42-1.81,2.33a22.12,22.12,0,0,1-8.09-1.66,4,4,0,0,0-2.35-.22c-2.62.54-5.24,1-7.44,2.82-1.64,1.33-2.34,3.39-1.09,5.1,1.42,1.92,1.07,3.77.4,5.79a7.83,7.83,0,0,0-.11,2.63c0,.45.28.89.31,1.34.12,1.75-.59,2.26-2.17,1.46a4.39,4.39,0,0,0-3.77,0c-1.76.68-3.43,1.59-5.19,2.29a1.69,1.69,0,0,1-1.51-.17c-1.94-2.39-3.5-1.3-4.67.85a6.08,6.08,0,0,0-.32,5.73,8.71,8.71,0,0,1,.56,3.24c0,.49-.46,1-.72,1.49-.42-.38-1-.68-1.24-1.15-1-1.91-1.89-3.89-2.88-5.82s-3.09-2.84-5-3.5c-2.13-.74-5.56,2.12-5.83,4.41-.18,1.56-.42,3.12-.71,4.66-.06.34-.46.61-.7.91a3.72,3.72,0,0,1-.6-.94c-.23-.84-.39-1.71-.54-2.57a3,3,0,0,0-3.33-2.82c-1.19,0-2,1.13-2.47,2.75a21,21,0,0,1-1.66,3.45c-.76,1.51-1.5,3-2.28,4.53C887.39,123,887.06,123.53,886.63,124.27Z"/><path class="cls-14" d="M886.63,124.27c-.33-.52-.48-.64-.47-.74.29-2.24.57-4.49.91-6.73s.86-4.27,1.05-6.42c.27-2.92-1.57-4.15-4.32-3.17a54.79,54.79,0,0,1-6.45,2,14.46,14.46,0,0,1-3.86-.06c-.22,0-.6-.28-.6-.44a1.31,1.31,0,0,1,.38-.8c1-1.08,2.07-2.1,3.06-3.2a1.43,1.43,0,0,0-.13-2.29,17.75,17.75,0,0,1-1.86-1.86,3.14,3.14,0,0,0-4.73-.39c-1.19,1-2.42,2-3.65,2.94a1.25,1.25,0,0,1-2-.11c-.65-.8-.14-1.41.47-1.88,1.46-1.11,3-2.11,4.41-3.29a8.06,8.06,0,0,0,1.27-1.94c1.48-2.33,2.89-4.71,4.48-7,1.27-1.79,1.21-3.39-.64-4.57A15.31,15.31,0,0,0,870.8,83a3.54,3.54,0,0,0-3.26.67,5.76,5.76,0,0,1-2.62.91,34,34,0,0,1-5-.12c-.41,0-.79-.54-1.19-.83.39-.38.74-1,1.18-1.1a9.42,9.42,0,0,1,2.9,0,4.34,4.34,0,0,0,3.66-.84c1.35-1.16,2.89-1,4.47-.83,1.15.16,2.3.27,3.45.41a2.59,2.59,0,0,0,3.06-1.79,7,7,0,0,0,.7-1.94,2.49,2.49,0,0,0-.64-1.79c-2-1.66-4-3.21-6-4.76a10.59,10.59,0,0,0-2.41-1.5c-1.25-.49-2.83-2.46-2.68-3.8,0-.3.62-.72,1-.75,1.15-.09,2.31,0,3.47,0,2.8-.05,3-.74,4.3-3.55.57-1.25-.3-3.7-1.46-4.67-2-1.63-2-1.72-1.19-4.11.58-1.76.66-3.17-1-4.7a59.37,59.37,0,0,1-5.39-6.51c-.09-.11-.14-.26-.25-.33-2.52-1.53-4.25-4.2-7.25-5.05a5.84,5.84,0,0,1-3.36-3c-1.43-2.43-2.88-4.85-4.29-7.29a4.34,4.34,0,0,1-.64-1.64c-.11-1.09.54-1.79,1.59-1.51a4.9,4.9,0,0,1,2.43,1.4c3,3.56,6.09,7,8.13,11.23a1.9,1.9,0,0,0,.4.56c3.48,3.23,6.78,6.69,10.53,9.57,2.29,1.75,4.58,4,7.92,3.94,1.49,0,3,.23,4.48.35a1,1,0,0,0,.67-.09c1.72-1.46,4-1.88,5.69-3.61,1.14-1.2,2.19-2.2,2.17-3.93a24.43,24.43,0,0,1,0-2.77,6.09,6.09,0,0,1,.67-1.62c.5.4,1.23.7,1.45,1.21,1.48,3.48,3,7,4.22,10.53.87,2.56,3,3.41,5.05,4.43s4,2,6.38,1.4c.45-.11.88-.29,1.32-.4,1.43-.36,2.88-.61,4.28-1.06,3.15-1,6.42-1.88,8.15-5.15a1.81,1.81,0,0,1,.61-.74c2.65-1.46,2.61-4,2.77-6.53.08-1.19.36-2.38.35-3.57A6.38,6.38,0,0,0,929,34.9c-1.26-2.32-1.27-3.73.34-5.89a1.67,1.67,0,0,0,.42-.71c.23-2.71,2.68-3.49,4.36-4.88.93-.77,3.3-.28,4.14.58a4.32,4.32,0,0,1,.52,4.32c-.47.89-.84,1.83-1.25,2.75a2.82,2.82,0,0,1-.22.51c-1.67,2.32-3.49,4.55-5,7a23.46,23.46,0,0,0-1.68,4.61c-.42,1.2-.84,2.41-1.24,3.62a16.79,16.79,0,0,0-1,3.27,2.51,2.51,0,0,0,3.41,2.89,17.94,17.94,0,0,0,3.6-2.15c.11-.07.17-.28.27-.3,2.82-.64,3.46-3.65,5.53-5.1,1.21-.85,2.37-1.77,3.58-2.63.74-.52,1.54-.59,2,.28s0,1.4-.78,1.91c-1.34.89-2.58,1.93-3.88,2.87a32.44,32.44,0,0,0-2.78,1.93c-1.4,1.26-2.68,2.65-4,4-.11.12-.1.35-.16.53-.45,1.2-1,2.4.45,3.34a3.79,3.79,0,0,0,4.36-.49,8.16,8.16,0,0,0,.7-.86c.56-.77,1.38-1.31,2.05-.5.39.47.42,2,.07,2.19-2.24,1.51-3.39,3.91-5,5.91a8.62,8.62,0,0,0-1.76,3.94c-.3,2-.81,3.78-2.65,4.91a2.55,2.55,0,0,0-1.19,3.43,4.7,4.7,0,0,1-.1,2.44c-.37,1.69-.17,2.33,1.35,3a19.7,19.7,0,0,0,8.66,1.52,75.93,75.93,0,0,1,8.13.43,2.46,2.46,0,0,1,2.51,2c.24,1.32-.5,2.42-1.81,2.33a22.12,22.12,0,0,1-8.09-1.66,4,4,0,0,0-2.35-.22c-2.62.54-5.24,1-7.44,2.82-1.64,1.33-2.34,3.39-1.09,5.1,1.42,1.92,1.07,3.77.4,5.79a7.83,7.83,0,0,0-.11,2.63c0,.45.28.89.31,1.34.12,1.75-.59,2.26-2.17,1.46a4.39,4.39,0,0,0-3.77,0c-1.76.68-3.43,1.59-5.19,2.29a1.69,1.69,0,0,1-1.51-.17c-1.94-2.39-3.5-1.3-4.67.85a6.08,6.08,0,0,0-.32,5.73,8.71,8.71,0,0,1,.56,3.24c0,.49-.46,1-.72,1.49-.42-.38-1-.68-1.24-1.15-1-1.91-1.89-3.89-2.88-5.82s-3.09-2.84-5-3.5c-2.13-.74-5.56,2.12-5.83,4.41-.18,1.56-.42,3.12-.71,4.66-.06.34-.46.61-.7.91a3.72,3.72,0,0,1-.6-.94c-.23-.84-.39-1.71-.54-2.57a3,3,0,0,0-3.33-2.82c-1.19,0-2,1.13-2.47,2.75a21,21,0,0,1-1.66,3.45c-.76,1.51-1.5,3-2.28,4.53C887.39,123,887.06,123.53,886.63,124.27Z"/></svg>